<?xml version="1.0" encoding="utf-8"?>
<!-- Generator: Adobe Illustrator 26.0.1, SVG Export Plug-In . SVG Version: 6.00 Build 0)  -->
<svg version="1.1" id="Layer_1" xmlns="http://www.w3.org/2000/svg" xmlns:xlink="http://www.w3.org/1999/xlink" x="0px" y="0px"
	 viewBox="0 0 600 600" style="enable-background:new 0 0 600 600;" xml:space="preserve">
<style type="text/css">
	.st0{fill:#ffffff;}
</style>
<g>
	<g>
		<path class="st0" d="M299.4,236.59c48.59-0.06,88.9-40.14,88.96-88.47c0.07-49.86-39.39-89.75-88.65-89.62
			c-50.39,0.13-89.7,39.57-89.5,89.81C210.4,196.65,250.82,236.65,299.4,236.59z"/>
		<path class="st0" d="M504.87,339.25c0.71-17.05,0.41-34.1,1.5-51.42c1.3-20.75,0.36-40.19,0.41-60.79
			c0.06-26.98-0.04-53.96-0.04-80.94c0-2.82,0.19-5.65-0.14-8.45c-0.39-3.33-2.24-4.09-5.16-2.66c-0.26,0.67-0.32,1.35-0.18,2.05
			c-3.56,5.26-7.18,10.47-10.66,15.78c-31.38,47.93-63.68,95.38-103.07,137.18c-6.17,6.55-12.42,13.02-18.75,19.42
			c-13.75,13.9-27.94,27.54-43.85,38.97c-20.6,14.81-30.05,16.32-51.34,1.51c-10.41-7.24-19.72-15.91-28.8-24.76
			C186.41,268.2,140.85,202.71,96.17,134.91c-1.08,0.38-2.16,0.76-3.23,1.14c0,62.03,0.1,124.05,0,186.08
			c-0.09,53.14,13.28,103.48,47.81,145.02c43.08,51.82,109.77,79.22,176.73,73.64c38.06-3.18,72.9-15.78,103.23-39.59
			c17.4-10.74,30.52-25.93,43.14-41.61c19.27-23.95,30.91-53.06,36.93-83.02C503.29,364.06,504.35,351.65,504.87,339.25z
			 M501.71,343.42L501.71,343.42c-0.05-0.09-0.1-0.22-0.15-0.34c0.08,0.03,0.17,0.06,0.25,0.1
			C501.77,343.25,501.74,343.33,501.71,343.42z M162.12,487.33c0.87,1.22,1.85,2.36,2.97,3.39
			C163.81,489.64,162.86,488.5,162.12,487.33z"/>
	</g>
</g>
</svg>
